PathFileType	4	(X/Y/Z)	10_2_26_p1_0-337_filt_butterworth.trc
DataRate	CameraRate	NumFrames	NumMarkers	Units	OrigDataRate	OrigDataStartFrame	OrigNumFrames
59.0	59.0	5	27	m	59.0	252	337
Frame#	Time	RHip			RKnee			RAnkle			RBigToe			RSmallToe			RHeel			LHip			LKnee			LAnkle			LBigToe			LSmallToe			LHeel			Neck			Head			Nose			RShoulder			RElbow			RWrist			RThumb			RIndex			RPinky			LShoulder			LElbow			LWrist			LThumb			LIndex			LPinky			
		X1	Y1	Z1	X2	Y2	Z2	X3	Y3	Z3	X4	Y4	Z4	X5	Y5	Z5	X6	Y6	Z6	X7	Y7	Z7	X8	Y8	Z8	X9	Y9	Z9	X10	Y10	Z10	X11	Y11	Z11	X12	Y12	Z12	X13	Y13	Z13	X14	Y14	Z14	X15	Y15	Z15	X16	Y16	Z16	X17	Y17	Z17	X18	Y18	Z18	X19	Y19	Z19	X20	Y20	Z20	X21	Y21	Z21	X22	Y22	Z22	X23	Y23	Z23	X24	Y24	Z24	X25	Y25	Z25	X26	Y26	Z26	X27	Y27	Z27	
252	4.271186440677966	0.31035144219783645	0.8046928170899186	0.7155606903484433	0.320567033122333	0.3319935752051899	0.754622832726261	0.319693232847539	-0.07626786554807974	0.8003370766485527	0.28061885493849703	-0.12783491768962899	0.6060557450527926	0.3536923651312086	-0.13631788116750643	0.6596621665112323	0.2876514239975622	-0.16258875613120313	0.8894245920569464	0.10434430618295969	0.7922328721871613	0.6973320422052933	0.08236437831479165	0.3561143274711219	0.7227606262928619	0.0913360358657421	-0.0700104528008529	0.7732177990232992	0.11754944399566644	-0.158261768615219	0.6186589832981024	0.056986618701919595	-0.12381196764306615	0.6274042678806558	0.1146754483802066	-0.14278536013969104	0.8511744472922385	0.2064364553918456	1.3222433397588778	0.6817036132963741	0.19636357795214027	1.559770305729468	0.6668231484046634	0.21315702634996586	1.4497790289796426	0.601624941413207	0.38538379799013917	1.193083402044035	0.7085520324377913	0.4105543751954944	0.9127045561388099	0.7384258557696123	0.4227980313824625	0.6621587610747552	0.7065106837331281	0.40255491838250795	0.5683273504370112	0.6394658259103081	0.4197957805122352	0.5581814179864948	0.6447166984593709	0.4386981440005914	0.5521204161812958	0.687756487159666	0.05576549978223316	1.1972697659207276	0.6826310749972331	0.014172209048632693	0.9107236628913787	0.7018956888191661	0.0008195792374958864	0.6875759196276681	0.6360746292537981	0.05545271580907425	0.6106350992389781	0.5836726639745101	0.0337171789729398	0.569904776083407	0.5669973741599076	-0.02613456726314347	0.5450097986088493	0.6554753211355191	
253	4.288135593220339	0.3102984225943123	0.8032265650480037	0.7156610563327904	0.32049142585280044	0.3312182046599137	0.7549480025971285	0.31964871381764876	-0.07637876770462367	0.7995562068278933	0.27999723593942183	-0.1272944997379952	0.6034490504487254	0.35386686833110603	-0.1369318352098131	0.6589266964616083	0.2875497033338989	-0.1636374414582712	0.8896279587738025	0.10423260538667992	0.7921611363845746	0.6972934341308847	0.08247044275307028	0.3558344339306379	0.7222888342184399	0.0914484008709808	-0.06912039340101435	0.7732250604367857	0.11717703287033537	-0.15891515126763645	0.6196848385230751	0.05686754930878261	-0.12315250886296739	0.6277823086987796	0.11483636642700618	-0.14273758722368962	0.8509526439813181	0.20655679381492825	1.3228239755205038	0.6813667941566564	0.19636337193527242	1.559862518948192	0.6670570770661981	0.2130222696598632	1.4504739299658143	0.6016456523637488	0.3849918927223099	1.1927306017060224	0.7098105150884426	0.40977424562483333	0.9120975082104219	0.7358911542148407	0.4227036973032341	0.6613391359457438	0.7028566440614732	0.3986265428507183	0.5717137769079423	0.6267471501416124	0.41711944590713135	0.5604014637811813	0.6331135476486123	0.4358342221240683	0.5490796346611125	0.6898800652998003	0.05580332858050985	1.1972993461441772	0.6825142951819219	0.012789711667025912	0.9108006501465141	0.7014082242664064	-0.0017269133860812473	0.6866401203920813	0.6382475680267033	0.0546036570536403	0.6088741551655152	0.5886358683816748	0.03292891875190508	0.5700523645939325	0.5663859597125218	-0.02502886664096627	0.5453926403621657	0.6529909979122837	
254	4.305084745762712	0.3103885687731683	0.8016803636787713	0.715825367675371	0.320400559136745	0.33030067280788544	0.755236531848631	0.31958944487297775	-0.07672603288331638	0.7991128477819803	0.27957942377900363	-0.1267628848934907	0.6009768316411579	0.35387083787417684	-0.13774423498866956	0.6588417915336735	0.28749340064016965	-0.16450225438073784	0.8897411626762565	0.10422736192382086	0.7920728548344462	0.6973179168423965	0.08257388729255921	0.3555766098477517	0.7219013969209038	0.09152657399825578	-0.06830422946724597	0.7732234519256767	0.11631771165054205	-0.16031121648458557	0.6218345824758896	0.0567573954304032	-0.12255437809830748	0.6279722689571033	0.11500312077445314	-0.14249692824226362	0.8502703877244141	0.20662925513060013	1.3231932360708616	0.6811551149011874	0.1963668245998684	1.5599366982307177	0.6674302464899728	0.21308583498313594	1.451217263592336	0.6011810132974671	0.38434138320426625	1.1922190834958026	0.7118920226841801	0.40902216848028244	0.9119595889047114	0.7335259089485643	0.4223576740649981	0.6602113073115273	0.6998302291534116	0.3956490415557097	0.5739850100962993	0.61829532604076	0.4153163260462043	0.5614546968274656	0.6238482701511309	0.43317415158569	0.5452962830480016	0.6938628657504846	0.05590074864134462	1.1973899515556639	0.6822508400677507	0.011413791269931379	0.9103772855186681	0.7029212014369112	-0.0037743292997210725	0.6858680881210943	0.6401495459811293	0.05406729255517558	0.6069020602526031	0.5931265611874381	0.03212958442667238	0.5701925993689515	0.5659045794981183	-0.02410584904436014	0.5457305311639246	0.65111809284477	
255	4.322033898305085	0.3106565941551823	0.8002843645386204	0.7158808193151258	0.320313459065689	0.32931758182735105	0.7554654870307204	0.3195209049469456	-0.07728781811173091	0.7989629055871271	0.27934733040698656	-0.1263266162418111	0.598982680781211	0.35387220033473754	-0.13828436501229716	0.6589038457627263	0.287470610413921	-0.16501681638812205	0.8897551226979405	0.10432800443340816	0.7920744726895308	0.6973585708358802	0.08266678295222012	0.35542557400463864	0.7215031529649821	0.0915674599416393	-0.06750607404699159	0.7731820774353003	0.11507774737561058	-0.16224934068089797	0.6247696929814474	0.056685610915872174	-0.12215537059942937	0.6279577102062418	0.11517030047581847	-0.14206901153496448	0.8492967667967097	0.20647904714152793	1.3231757608662176	0.6815206368058271	0.1963749867425799	1.560004028390133	0.6677705612805394	0.2131886778618218	1.4518566242878286	0.6006908971927167	0.3835461356372765	1.1917936940070313	0.7144632844110544	0.40843430343524895	0.9124276474282834	0.7315893412294416	0.42188295389732966	0.6592125248832518	0.6973713711989005	0.3936728086703153	0.5751001455934344	0.6136533647360184	0.4141402600130545	0.5611911227594921	0.6173184782446488	0.43132891535655443	0.5416507056089757	0.6982426446724456	0.055960077978432624	1.1974902328338908	0.6820643749025074	0.010234543443579073	0.9095873198415849	0.7059736649169694	-0.00501603808404525	0.6853112213581309	0.6414447239797596	0.05389490331225051	0.6049648603558451	0.5966079606538104	0.03134120576766301	0.5703345884289408	0.5655941700373485	-0.0234929501143063	0.5456666279460198	0.6501112772254393	
256	4.338983050847458	0.3110802348812712	0.7993061845494177	0.7155231497512667	0.3202467257848899	0.32832635381613645	0.7556142434027883	0.3194466212618214	-0.07798183455686235	0.7990973069626724	0.27922335042559404	-0.12602947545196616	0.5977092802725517	0.3539446179594876	-0.1382876389550508	0.6588632545930124	0.2874551825925411	-0.16510933468281136	0.8896736284441515	0.10450891455922694	0.7922959343150374	0.6973241231628277	0.08272075203239816	0.3554634755323031	0.7209744074736724	0.09156473011562181	-0.06664164363884868	0.7730886728428793	0.11366095184285752	-0.16444033366561506	0.6280478684116203	0.05666642500121469	-0.12203591175101831	0.6277563733454476	0.11528567463762275	-0.14154482415931274	0.8485057632963445	0.20598844325251617	1.3227551110370042	0.6827721173548607	0.19638122388421053	1.5600492710321032	0.6679322728825403	0.21325354176817168	1.4522188976887715	0.6004484039502249	0.38272547177973365	1.1916250540552495	0.7171251891184238	0.4081565274451606	0.9131994103397537	0.730383640224473	0.4214323406217605	0.6586632453950052	0.6953182890298354	0.39214510510472034	0.5752582883675215	0.6116003271867559	0.4132861198764364	0.5600325819616522	0.6132312521999594	0.4305016264408897	0.5388243132085615	0.7019341588334184	0.05579469275046746	1.1974895055776178	0.6824007570490855	0.009241527374411413	0.9086599828812556	0.7096749067479753	-0.005250482734011157	0.6850856121871268	0.6417982760803742	0.05401341688794206	0.6032864364085588	0.5987725772655432	0.030575745664521717	0.5704376263949698	0.5653829547073492	-0.02328004552866439	0.5450210178417965	0.650088301463666	
